<svg xmlns="http://www.w3.org/2000/svg" viewBox="0 0 100 100" width="100" height="100"><rect x="3" y="3" width="94" height="94" rx="20" ry="20" fill="none" stroke="currentColor" stroke-width="5"/><g transform="translate(14.000 14.000) scale(3.00000)" fill="currentColor" color="currentColor"><path fill="currentColor" d="M4 5a2 2 0 0 0-2 2v10a2 2 0 0 0 2 2h16a2 2 0 0 0 2-2V7a2 2 0 0 0-2-2zm0 2h12v10H4zm15 0a1 1 0 0 1 1 1a1 1 0 0 1-1 1a1 1 0 0 1-1-1a1 1 0 0 1 1-1M6 9v2h8V9zm13 2a1 1 0 0 1 1 1a1 1 0 0 1-1 1a1 1 0 0 1-1-1a1 1 0 0 1 1-1"/></g></svg>